<?xml version="1.0" standalone="no"?>
<!DOCTYPE svg PUBLIC "-//W3C//DTD SVG 20010904//EN"
 "http://www.w3.org/TR/2001/REC-SVG-20010904/DTD/svg10.dtd">
<svg version="1.0" xmlns="http://www.w3.org/2000/svg"
 width="728.000000pt" height="192.000000pt" viewBox="0 0 728.000000 192.000000"
 preserveAspectRatio="xMidYMid meet">

<g transform="translate(0.000000,192.000000) scale(0.100000,-0.100000)"
fill="#000000" stroke="none">
<path fill="#fff" d="M5035 1758 l-56 -63 6 -60 c4 -33 9 -63 13 -67 4 -4 56 -23 117 -43
180 -60 290 -126 345 -206 31 -46 32 -52 28 -116 -5 -74 -32 -136 -98 -233
-34 -49 -40 -67 -54 -164 -8 -61 -13 -112 -11 -115 3 -2 18 7 33 21 44 42 88
59 183 70 195 24 518 -48 682 -152 26 -17 52 -30 57 -30 13 0 12 35 -5 163
-14 107 -28 142 -71 178 -24 19 -69 117 -90 195 -16 61 -16 67 -1 100 17 35
79 73 119 74 9 0 19 4 22 8 6 10 -19 206 -29 221 -3 6 -22 11 -41 11 -19 0
-65 4 -102 10 -37 5 -220 25 -407 45 -187 20 -362 40 -390 44 -31 6 142 9 454
9 l503 0 42 59 c39 55 41 57 44 30 2 -18 -9 -46 -32 -84 -19 -31 -33 -60 -30
-65 3 -4 44 -8 92 -8 72 0 94 4 127 23 22 12 44 32 50 45 9 21 35 31 35 14 0
-4 -16 -38 -36 -75 -19 -37 -32 -72 -28 -78 15 -25 374 38 533 92 30 11 56 17
58 15 3 -2 -24 -27 -58 -54 -141 -115 -414 -215 -644 -237 -82 -8 -110 -23
-130 -71 -14 -33 -13 -37 11 -77 34 -55 70 -92 119 -127 36 -25 44 -39 75
-129 l34 -101 -61 -63 c-92 -94 -143 -148 -143 -153 0 -2 5 -4 10 -4 16 0 215
211 212 224 -1 6 -18 57 -38 112 -34 97 -38 103 -85 135 -29 20 -67 59 -89 92
-37 55 -39 60 -25 86 21 42 34 48 123 55 271 22 604 168 725 318 26 32 28 40
16 54 -12 15 -38 16 -267 9 -212 -6 -266 -5 -335 9 -45 8 -108 18 -139 21
l-57 6 -3 42 -3 42 -627 3 -626 2 -57 -62z m1267 37 c3 -4 -10 -31 -30 -60
l-37 -54 -612 -1 c-367 0 -613 -4 -613 -9 0 -15 -1 -15 525 -72 50 -5 128 -14
175 -19 47 -6 148 -17 225 -25 234 -24 260 -27 271 -37 6 -4 15 -40 18 -79 4
-39 10 -77 13 -85 3 -8 -3 -16 -13 -19 -61 -19 -107 -51 -126 -89 -20 -40 -20
-42 -3 -111 23 -89 68 -180 111 -226 33 -34 35 -41 49 -154 8 -66 15 -120 15
-122 0 -1 -46 20 -102 47 -275 132 -635 169 -785 80 -19 -11 -35 -20 -37 -20
-2 0 4 39 12 87 11 67 22 97 47 132 62 87 98 171 103 242 4 62 2 69 -31 121
-41 64 -79 95 -180 149 -86 46 -78 50 19 9 243 -102 469 -249 634 -412 70 -70
156 -176 148 -183 -3 -3 -25 2 -49 11 -143 50 -329 73 -449 55 -41 -7 -76 -14
-79 -16 -13 -13 15 -14 100 -4 118 15 255 -3 413 -54 58 -19 108 -32 110 -28
8 13 -110 303 -136 335 -40 50 -175 155 -260 202 -138 78 -324 137 -516 164
-56 8 -87 9 -93 3 -7 -7 -29 -5 -67 7 -60 19 -69 31 -71 96 -1 30 5 40 69 111
l29 32 599 1 c329 0 601 -2 604 -5z m161 -100 c47 -5 58 -10 55 -23 -5 -30
-86 -62 -155 -62 -72 0 -76 6 -38 63 21 31 31 36 53 33 15 -2 53 -7 85 -11z
m642 -27 c15 -15 -213 -79 -380 -107 -204 -34 -197 -33 -189 -8 5 18 49 102
57 109 2 2 469 14 494 12 7 0 15 -3 18 -6z m-1740 -163 c179 -37 365 -118 492
-214 122 -93 158 -135 192 -226 16 -44 33 -89 37 -100 4 -11 -44 32 -107 96
-166 169 -324 279 -564 395 -71 35 -128 63 -125 64 3 0 37 -7 75 -15z"/>
<path fill="#fff" d="M4352 1661 c-7 -4 -11 -149 -14 -431 -3 -373 -1 -425 12 -425 12 0
16 21 18 117 l3 117 219 1 220 1 0 -25 c0 -14 -12 -56 -26 -93 -36 -95 -39
-113 -22 -113 29 0 83 149 91 250 19 240 -171 500 -429 587 -34 12 -66 18 -72
14z m148 -88 c103 -50 213 -160 263 -263 33 -66 69 -212 56 -223 -2 -3 -104
-8 -226 -11 l-223 -8 0 239 c0 131 3 255 6 276 8 44 11 44 124 -10z"/>
<path fill="#fff" d="M2221 1651 c-33 -21 4 -31 114 -31 l115 0 2 -402 c3 -350 5 -403 18
-403 13 0 15 53 18 403 l2 402 120 0 c115 0 152 10 119 31 -8 5 -122 9 -254 9
-132 0 -246 -4 -254 -9z"/>
<path fill="#fff" d="M420 1634 c-89 -24 -194 -80 -243 -130 -46 -46 -77 -113 -77 -164 0
-40 47 -125 92 -166 48 -43 159 -97 240 -115 l57 -13 3 -116 c2 -94 6 -115 18
-115 12 0 16 22 20 114 l5 113 85 25 c141 40 243 111 276 188 35 84 3 190 -78
260 -77 66 -239 136 -312 134 -17 0 -56 -7 -86 -15z m70 -288 l0 -264 -55 14
c-210 55 -332 186 -285 308 14 37 75 101 124 130 42 24 178 75 204 76 9 0 12
-59 12 -264z m101 248 c165 -49 279 -154 279 -256 0 -95 -66 -166 -203 -217
-32 -11 -76 -25 -98 -30 l-39 -9 0 264 c0 145 1 264 3 264 2 0 28 -7 58 -16z"/>
<path fill="#fff" d="M1746 1637 c-15 -11 -16 -56 -14 -412 3 -348 5 -400 18 -400 12 0 16
20 18 107 l3 107 47 6 c171 20 272 57 348 127 57 52 83 107 84 171 1 160 -165
276 -432 300 -35 3 -62 1 -72 -6z m208 -54 c113 -28 202 -86 236 -154 24 -47
26 -119 4 -165 -43 -91 -182 -160 -361 -179 l-63 -7 0 267 0 267 63 -7 c34 -4
89 -13 121 -22z"/>
<path fill="#fff" d="M2930 1618 c1 -197 185 -519 326 -570 19 -6 34 -16 34 -20 0 -5 -20
-29 -45 -54 -56 -56 -150 -101 -227 -110 -64 -7 -76 -15 -53 -34 12 -10 28
-10 78 0 231 45 378 244 432 585 12 76 19 175 16 223 -1 6 -7 12 -15 12 -11 0
-16 -20 -21 -77 -8 -103 -32 -244 -52 -313 -26 -91 -74 -190 -92 -190 -39 0
-121 62 -175 131 -85 108 -166 300 -166 390 0 38 -10 59 -26 59 -9 0 -14 -11
-14 -32z"/>
<path fill="#fff" d="M3704 1636 c-3 -8 -4 -192 -2 -410 2 -296 6 -398 15 -407 7 -7 16
-10 19 -6 3 3 6 59 5 123 l-2 117 107 -6 c59 -4 136 -7 170 -7 l63 0 3 -112
c2 -93 6 -113 18 -113 13 0 15 53 15 415 0 362 -2 415 -15 415 -13 0 -15 -39
-18 -282 l-2 -283 -154 0 c-85 0 -161 3 -170 6 -14 5 -16 40 -16 285 0 244 -2
279 -15 279 -9 0 -18 -6 -21 -14z"/>
<path fill="#fff" d="M1235 1631 c-178 -47 -276 -253 -231 -484 39 -202 147 -322 300 -334
120 -10 225 66 281 204 22 55 29 89 33 174 2 60 0 128 -7 158 -26 120 -100
224 -188 262 -52 22 -143 32 -188 20z m181 -59 c224 -114 225 -593 2 -701 -56
-26 -138 -28 -193 -2 -56 25 -127 108 -154 177 -88 230 -21 478 145 540 52 19
148 12 200 -14z"/>
<path fill="#fff" d="M260 235 c0 -138 1 -145 20 -145 18 0 20 7 20 70 0 75 7 83 47 55 13
-9 27 -35 34 -58 13 -51 25 -67 50 -67 12 0 19 7 19 20 0 11 -4 20 -8 20 -5 0
-14 19 -21 41 -7 23 -24 52 -37 64 -25 23 -25 23 -4 30 12 4 28 22 37 41 9 19
20 34 25 34 4 0 8 9 8 21 0 38 -42 19 -66 -29 -22 -47 -38 -62 -66 -62 -15 0
-18 9 -18 55 0 48 -2 55 -20 55 -19 0 -20 -7 -20 -145z"/>
<path fill="#fff" d="M591 278 l51 -102 -26 -23 c-15 -13 -34 -23 -42 -23 -8 0 -14 -9 -14
-21 0 -18 4 -20 27 -14 64 16 118 89 163 221 24 69 24 64 1 64 -14 0 -23 -11
-31 -37 -7 -21 -22 -60 -33 -87 l-21 -48 -43 86 c-33 65 -48 86 -63 86 -18 0
-15 -10 31 -102z"/>
<path fill="#fff" d="M883 370 c-15 -6 -20 -15 -16 -28 4 -17 9 -18 44 -8 33 9 42 7 56 -7
24 -24 6 -51 -36 -55 -23 -2 -31 -8 -31 -23 0 -13 7 -19 24 -19 39 0 70 -32
62 -63 -8 -32 -44 -44 -91 -30 -29 9 -34 8 -38 -8 -13 -49 109 -52 150 -4 31
35 30 80 -2 109 -25 23 -25 23 -5 41 20 18 26 51 12 71 -20 31 -83 42 -129 24z"/>
<path fill="#fff" d="M1150 235 c0 -138 1 -145 20 -145 18 0 20 7 20 70 l0 70 60 0 60 0 0
-70 c0 -63 2 -70 20 -70 19 0 20 7 20 145 0 138 -1 145 -20 145 -18 0 -20 -7
-20 -55 l0 -55 -60 0 -60 0 0 55 c0 48 -2 55 -20 55 -19 0 -20 -7 -20 -145z"/>
<path fill="#fff" d="M1480 235 l0 -145 85 0 c78 0 85 2 85 20 0 18 -7 20 -65 20 l-65 0 0
50 0 50 50 0 c43 0 50 3 50 20 0 17 -7 20 -50 20 l-50 0 0 35 0 35 65 0 c58 0
65 2 65 20 0 18 -7 20 -85 20 l-85 0 0 -145z"/>
<path fill="#fff" d="M1760 325 c0 -30 5 -65 11 -79 14 -31 58 -49 104 -44 l35 4 0 -58 c0
-51 2 -58 20 -58 19 0 20 7 20 145 0 138 -1 145 -20 145 -18 0 -20 -7 -20 -64
0 -68 -6 -76 -55 -76 -39 0 -55 25 -55 86 0 47 -2 54 -20 54 -18 0 -20 -7 -20
-55z"/>
<path fill="#fff" d="M2080 235 c0 -138 1 -145 20 -145 18 0 20 7 20 70 l0 70 60 0 60 0 0
-70 c0 -63 2 -70 20 -70 19 0 20 7 20 145 0 138 -1 145 -20 145 -18 0 -20 -7
-20 -55 l0 -55 -60 0 -60 0 0 55 c0 48 -2 55 -20 55 -19 0 -20 -7 -20 -145z"/>
<path fill="#fff" d="M2494 364 c-4 -10 -16 -41 -27 -69 -73 -188 -77 -205 -58 -205 11 0
24 12 31 30 12 28 16 30 65 30 49 0 53 -2 65 -30 8 -18 20 -30 31 -30 18 0 18
1 0 48 -10 26 -33 87 -51 137 -38 103 -46 116 -56 89z m43 -145 c5 -28 4 -29
-35 -29 l-41 0 21 63 22 62 13 -34 c8 -18 17 -46 20 -62z"/>
<path fill="#fff" d="M2770 367 c-37 -19 -56 -60 -45 -94 6 -15 20 -32 32 -38 21 -11 21
-12 3 -23 -10 -6 -24 -27 -31 -47 -7 -19 -17 -35 -21 -35 -4 0 -8 -9 -8 -20 0
-13 7 -20 19 -20 23 0 35 15 50 63 13 39 35 57 70 57 19 0 21 -6 21 -60 0 -53
2 -60 20 -60 19 0 20 7 20 145 l0 145 -52 0 c-29 0 -64 -6 -78 -13z m90 -72
c0 -43 -2 -45 -28 -45 -57 0 -95 55 -54 79 9 6 32 11 50 11 31 0 32 -1 32 -45z"/>
<path fill="#fff" d="M3250 379 c0 -2 -11 -67 -25 -143 -14 -77 -25 -141 -25 -143 0 -2 8
-3 19 -3 15 0 19 10 25 53 3 28 6 70 6 91 0 51 5 44 44 -54 18 -45 36 -82 41
-83 4 -1 22 35 40 80 17 46 34 86 38 89 4 4 7 -17 7 -47 0 -89 10 -129 31
-129 11 0 19 1 19 3 0 16 -51 281 -55 285 -5 6 -5 7 -45 -121 -18 -55 -34 -97
-36 -94 -3 3 -20 51 -38 106 -28 85 -46 128 -46 110z"/>
<path fill="#fff" d="M3669 354 c-6 -16 -17 -45 -24 -64 -7 -19 -27 -72 -44 -117 -28 -76
-29 -83 -12 -83 11 0 24 12 31 30 12 28 16 30 65 30 50 0 54 -2 64 -30 7 -20
17 -30 30 -30 20 0 20 1 -5 68 -14 37 -37 99 -51 137 -33 88 -39 95 -54 59z
m48 -135 c5 -28 4 -29 -35 -29 l-41 0 21 63 22 62 13 -34 c8 -18 17 -46 20
-62z"/>
<path fill="#fff" d="M3954 361 c-34 -21 -64 -83 -64 -132 0 -39 22 -89 50 -114 43 -38
182 -19 149 21 -8 10 -16 11 -29 4 -80 -43 -161 61 -116 148 21 41 50 56 96
48 28 -4 39 -2 44 9 13 36 -79 47 -130 16z"/>
<path fill="#fff" d="M4190 360 c0 -17 7 -20 45 -20 l45 0 0 -125 c0 -118 1 -125 20 -125
19 0 20 7 20 125 l0 125 45 0 c38 0 45 3 45 20 0 19 -7 20 -110 20 -103 0
-110 -1 -110 -20z"/>
<path fill="#fff" d="M4530 235 l0 -145 85 0 c78 0 85 2 85 20 0 18 -7 20 -65 20 l-65 0 0
50 0 50 50 0 c43 0 50 3 50 20 0 17 -7 20 -50 20 l-50 0 0 35 0 35 65 0 c58 0
65 2 65 20 0 18 -7 20 -85 20 l-85 0 0 -145z"/>
<path fill="#fff" d="M4820 235 c0 -138 1 -145 20 -145 18 0 20 7 20 55 0 52 2 55 24 55
67 0 104 47 92 116 -6 28 -14 38 -41 50 -19 8 -53 14 -75 14 l-40 0 0 -145z
m104 89 c33 -32 8 -84 -40 -84 -22 0 -24 4 -24 50 0 46 2 50 24 50 14 0 32 -7
40 -16z"/>
<path fill="#fff" d="M5164 361 c-77 -47 -85 -183 -14 -246 43 -38 182 -19 149 21 -8 10
-16 11 -29 4 -34 -18 -75 -11 -101 16 -19 21 -24 36 -24 81 0 48 3 58 29 80
25 21 37 24 72 20 30 -3 44 0 48 9 13 35 -80 45 -130 15z"/>
<path fill="#fff" d="M5420 235 c0 -138 1 -145 20 -145 18 0 20 7 20 70 0 75 7 83 47 55
13 -9 27 -35 34 -58 13 -51 25 -67 50 -67 12 0 19 7 19 20 0 11 -4 20 -8 20
-5 0 -14 19 -21 41 -7 23 -23 52 -36 65 -23 22 -23 23 -4 29 11 4 27 22 36 41
9 19 20 34 25 34 4 0 8 9 8 21 0 38 -42 19 -66 -29 -22 -47 -38 -62 -66 -62
-15 0 -18 9 -18 55 0 48 -2 55 -20 55 -19 0 -20 -7 -20 -145z"/>
<path fill="#fff" d="M5815 369 c-2 -8 -21 -57 -41 -109 -68 -178 -66 -170 -45 -170 11 0
24 12 31 30 12 28 16 30 65 30 49 0 53 -2 65 -30 8 -18 20 -30 31 -30 11 0 19
1 19 3 -1 9 -108 279 -113 284 -4 3 -9 0 -12 -8z m33 -119 l21 -60 -44 0 -44
0 21 60 c11 33 21 60 23 60 2 0 12 -27 23 -60z"/>
<path fill="#fff" d="M6100 373 c-31 -12 -60 -47 -60 -75 0 -28 30 -68 51 -68 7 0 0 -9
-14 -20 -14 -11 -28 -34 -32 -50 -4 -17 -11 -30 -16 -30 -5 0 -9 -9 -9 -20 0
-13 7 -20 19 -20 23 0 35 15 50 63 13 39 35 57 70 57 19 0 21 -6 21 -60 0 -53
2 -60 20 -60 19 0 20 7 20 145 l0 145 -52 -1 c-29 0 -60 -3 -68 -6z m80 -79
l0 -47 -41 6 c-40 5 -59 19 -59 44 0 22 32 43 66 43 34 0 34 0 34 -46z"/>
</g>
</svg>
